/* XPM */
static char*driver[]={
"13 13 3 1",
"# c #303030",
". c None",
"a c #ff0000",
".......#.....",
"......##...a.",
".....#.#..a..",
"....#.##.a.a.",
"##.#.###..a..",
"###.####.a...",
"########.....",
"###.####.a...",
"##.#.###..a..",
"....#.##.a.a.",
".....#.#..a..",
"......##...a.",
".......#....."};
