/* XPM */
static char *driverparam[]={
"80 50 3 1",
". c None",
"# c #303030",
"a c #ff0000",
".........####..####.............................................................",
".........#..#..#..#.............................................................",
"...###...#..#..#..#.....##########.....................................###......",
"..#####..#..#..#..#.....#........#....###.............................#####.....",
"..########..#..#..#..####........##########################################.....",
"..#####.....#..#..#..#..#........#....###..........#.........#........#####.....",
"...###......#..#..#..#..##########.....#...........#.........#.........###......",
"............#..#..#..#.................#...........#.........#..................",
"............####..####.................#...........#.........#..................",
".......................................#...........#.........#..................",
".......................................#####.......#.........#..................",
"...........................................#.......#.........#..................",
"...........................................#.......#.........#..................",
"...........................................#.......#.........#..................",
"...................................#########.......#.........#...............a..",
"...................................#...............#.......#####............aa..",
"...................................#...............#.......#...#...........aaa..",
"...................................#...............#.......#...#..........a.aa..",
"...................................#########.......#.......#...#.........a..aa..",
"...........................................#.......#.......#...#........a...aa..",
"...........................................#.......#.......#...#.......a....aa..",
"...........................................#...#########...#...#...aa.a.....aa..",
"...................................#########...#########...#...#...aaa......aa..",
"...................................#...........#########...#...#...aaa......aa..",
"...................................#.......................#...#...aaa......aa..",
"...................................#...........#########...#...#...aaa......aa..",
"...................................#########...#########...#...#...aaa......aa..",
"...........................................#...#########...#...#...aaa......aa..",
"...........................................#.......#.......#...#...aa.a.....aa..",
"...........................................#.......#.......#...#.......a....aa..",
"...................................#########.......#.......#...#........a...aa..",
"...................................#...............#.......#...#.........a..aa..",
"...................................#...............#.......#...#..........a.aa..",
"...................................#...............#.......#...#...........aaa..",
"...................................#########.......#.......#####............aa..",
"...........................................#.......#.........#...............a..",
"...........................................#.......#.........#..................",
"...........................................#.......#.........#..................",
".......................................#####.......#.........#..................",
".......................................#...........#.........#..................",
".......................................#...........#.........#..................",
".......................................#...........#.........#..................",
".......................................#...........#.........#..................",
"...###.................................#...........#.........#.........###......",
"..#####...............................###..........#.........#........#####.....",
"..#########################################################################.....",
"..#####...............................###.............................#####.....",
"...###.................................................................###......",
"................................................................................",
"................................................................................"};
