/* XPM */
static char * driver_xpm[] = {
"25 50 2 1",
" 	c None",
".	c #000000",
"            .            ",
"            .            ",
"            .            ",
"            .            ",
"            .            ",
"            .            ",
"            .            ",
"            .            ",
"            .            ",
"            .            ",
"            .            ",
"            .          ..",
"            .         . .",
"            .        .  .",
"            .       .   .",
"            .      .    .",
"            .     .     .",
"            .    .      .",
"            .   .       .",
"            .  .        .",
"       ........         .",
"      .       .         .",
"      .       .         .",
"      .       .         .",
"      .       .         .",
"      .       .         .",
"      .       .         .",
"      .       .         .",
"      .       .         .",
"       ........         .",
"            . .         .",
"            .  .        .",
"            .   .       .",
"            .    .      .",
"            .     .     .",
"            .      .    .",
"            .       .   .",
"            .        .  .",
"            .         . .",
"            .          ..",
"            .            ",
"            .            ",
"            .            ",
"            .            ",
"            .            ",
"            .            ",
"            .            ",
"            .            ",
"            .            ",
"            .            "};
