/* XPM */
static char *mini[]={
"13 13 3 1",
". c None",
"# c #303030",
"a c #c0c0c0",
"...#######...",
"...##aaaaa#..",
"...#a#.aaaa#.",
"...#a.#######",
"...#aa#aaaaa#",
"...#aa#aa#aa#",
"...#aa#aaaaa#",
"...#aa#aaaaa#",
"...#aa#a###a#",
"...#aa#a###a#",
"....#a#a###a#",
"....a##aaaaa#",
"......#######"};
