/* XPM */
static char*mini[]={
"13 13 2 1",
"# c #303030",
". c None",
".....#....#..",
".....#....#..",
".....#....#..",
".....#...###.",
".....#...###.",
"...#####.###.",
".........###.",
"...#####.###.",
".....#...###.",
".....#...###.",
".....#....#..",
".....#....#..",
".....#....#.."};
