/* XPM */
static char *net[]={
"48 47 4 1",
". c None",
"# c #303030",
"a c #400000",
"b c #c0c0c0",
".............##########.........................",
".............#........#.........................",
"..........####........####......................",
"..........#..#........#..#......................",
"..........#..##########..#......................",
"..........#..............#......................",
"..........#..............#......................",
"..........#.....#..#.....#......................",
"..........#.....#..#.....#..............###.....",
"#################..#############################",
"..........#.....#..#.....#..............###.....",
"..........#.....#..#.....#...............#......",
"..........#..............#...............#......",
"..........#..............#...............#......",
"..........#...###.###....#...............#......",
"..........#...#.#.#.#....#.............#####....",
"..........###.#.#.#.#.####.............#...#....",
"............#.#.#.#.#.#................#...#....",
"............###.###.###................#...#....",
".......................................#...#....",
".......................................#...#....",
".......................................#...#....",
".......................................#...#....",
".......................................#...#....",
".......................................#####....",
".........................................#......",
".........................................#......",
".........................................#......",
".......................................#####....",
"................................................",
".......................................#####....",
".........................................#......",
".........................................#......",
".........................................#......",
".........................................###....",
"...........................................#....",
".......................................#####....",
".......................................#........",
".......................................#####....",
"...........................................#....",
".......................................#####....",
".......................................#........",
".......................................###......",
".........................................#......",
"........................................a#a.....",
"##########################################a#####",
"bbbbbbbbbbbbbbbbbbbbbbbbbbbbbbbbbbbbbbbb###....."};
