/* XPM */
static char *net3[]={
"48 47 3 1",
". c None",
"# c #303030",
"a c #808080",
"................................................",
"..........#.....................................",
"..........#.....................................",
"........#####...................................",
"..........#.....................................",
"..........#.....................................",
"................................................",
"................................................",
"...........###..................................",
"##############..................................",
"...........###..................................",
"............#...................................",
"............#...................................",
"............#...................................",
"............#.......###.........................",
"............#.......###.........................",
"............#......##a#.........................",
"............#.....###a#.........................",
"............#....##.#a#.........................",
"............#...##..#a#.........................",
"............#..##...#a#.........................",
"............#.##....#a#.........................",
"......####..###.....#a#.........................",
"......####..##......#a#.........................",
"......####.##.......#a#.........................",
"......######........#a#.........................",
"......######........#a#.........................",
"......######........#a#.........................",
"......######........#a#.........................",
"......######........#a#.........................",
"......####.##.......#a#.........................",
"......####..##......#a#.........................",
"......####..###.....#a#.........................",
"............#.##....#a#.........................",
"............#..##...#a#.........................",
"............#...##..#a#.........................",
"............#....##.#a#.........................",
"............#.....###a#.........................",
"............#......##a#.........................",
"............#.......#a#.........................",
"............#.......###.........................",
"............#...................................",
"............#...................................",
"............#...................................",
"...........###..................................",
"##############..................................",
"...........###.................................."};
