/* XPM */
static char * r_xpm[] = {
"50 25 2 1",
" 	c None",
".	c #000000",
"                                                  ",
"                                                  ",
"                                                  ",
"                                                  ",
"                                                  ",
"                                                  ",
"           ...........................            ",
"           ...........................            ",
"           ..                       ..            ",
"           ..                       ..            ",
"           ..                       ..            ",
"           ..                       ..            ",
".............                       ..............",
"           ..                       ..            ",
"           ..                       ..            ",
"           ..                       ..            ",
"           ..                       ..            ",
"           ..                       ..            ",
"           ...........................            ",
"           ...........................            ",
"                                                  ",
"                                                  ",
"                                                  ",
"                                                  ",
"                                                  "};
