/* XPM */
static char *step1[]={
"100 30 10 1",
". c None",
"g c #d81a1a",
"b c #dc3434",
"f c #e14d4d",
"e c #e56666",
"a c #e98080",
"d c #ee9a9a",
"# c #f2b3b3",
"c c #f6cdcd",
"h c #fbe6e6",
"....................................................................................................",
"....................................................................................................",
"....................................................................................................",
"..................................................................................#a................",
"..................................................................................bc................",
".................................................................................de.................",
"................cfgga..............................................a#...........hbh...cfgb#.........",
"...............ea#dggc...........................................dbgh...........ad...abegggh........",
"..............ea...ebh.....cc..................................dbfgb...........hb...#d..#gg#........",
".............agh...c......egc.................................ddh#ge...........fc........ggh........",
".............gg...........gg.........#.......h...hc..............eg#..........#e........cga.........",
"............#gg..........#ge.......#fgbh...cfe..aggd.............bgh..........bh.......hf#..........",
"............#ggd.........age###...e#.gg#.hfggahbfbgg.............gb..........da.......#bec..........",
".............bgga......aebgeeeh..ef..gghce#bgefc.dgg............#ge.........hb......dfggggd.........",
".............hbgge.......bg.....cg#.cga....bga...#gb............agd.........e#.....d#..#ggg.........",
"..............heggbh....hge.....eg.hba.....gb....#ge............fgc........cf...........agg.........",
"................egga....#gd.....ge#f#.....cge....eg#............gg.........bc...........#gf.........",
".................bge....eg#....#gbeh......dg#....bg............cgf........da............#gd.........",
".................ega....bg...h.#gd.....h..egh...cga............dga.......hbh............ff..........",
"........#........egh...hgg..ce.ege....e#..bg....fbh............eg#.......ad............#bh..........",
".......cg.......hga....#ggefeh.agbh.#b#..hgfh..eeh.............gg#......cb......ad....ceh...........",
".......age......ee.....cggb#...cggggfh...#gggfbd...........caefggbeac...fc.....#ggbeeed.............",
".......bggec..#ba.......#ah.....#eec.....egaedh............#########h..df.......##d#c...............",
".......hfgggggah.........................bg...........................hbh...........................",
".........h##c...........................hgf...........................aa............................",
"........................................#ga..........................cbh............................",
"........................................eg#..........................bd.............................",
"........................................bgh.........................................................",
"......................................#eggee#.......................................................",
"......................................######h......................................................."};
