/* XPM */
static char *step3[]={
"100 30 12 1",
". c None",
"g c #d81a1a",
"b c #dc3434",
"f c #e04d4d",
"e c #e56666",
"a c #e98080",
"j c #ed9898",
"d c #ed9999",
"# c #f2b2b2",
"c c #f6cccc",
"i c #f9e4e4",
"h c #fae5e5",
"....................................................................................................",
"....................................................................................................",
"....................................................................................................",
"..................................................................................#a................",
"..................................................................................bc................",
".................................................................................de.................",
"................cfgga...........................................hagga...........hbh...cfgb#.........",
"...............ea#dggc.........................................#bebggd..........ad...abegggh........",
"..............ea...ebh.....cc..................................eh.hbge.........hb...#d..#gg#........",
".............agh...c......egc......................................egd.........fc........ggh........",
".............gg...........gg.........#.......h...hc................bb.........#e........cga.........",
"............#gg..........#ge.......#fgbh...cfe..aggd..............ea..........bh.......hf#..........",
"............#ggd.........age###...e#.gg#.hfggahbfbgg............hfb#.........da.......#bec..........",
".............bgga......aebgeeeh..ef..gghce#bgefc.dgg..........ceggggf.......hb......dfggggd.........",
".............hbgge.......bg.....cg#.cga....bga...#gb.........cdh.hbgg#......e#.....d#..#ggg.........",
"..............heggbh....hge.....eg..ba.....gb....#ge..............cgg#.....cf...........agg.........",
"................egga....#gd.....ge#f#.....cge....eg#...............ggh.....bc...........#gf.........",
".................bge....eg#....#gbeh......dg#....bg................gf.....da............#gd.........",
".................ega....bg...h.#gd.....h..egh...cga...............dgh....hbh............ff..........",
"........#........egh...hgg..ce.ege....e#..bg....fbh..............hb#.....ad............#bh..........",
".......cg.......hga....#ggefeh.agbh.#b#..hgfh..eeh........#ah...ha#.....cb......ad....ceh...........",
".......age......ee.....cggb#...cggggfh...#gggfbd.........hbggeeeah......fc.....#ggbeeed.............",
".......bggec..#ba.......#ah.....#eec.....egaedh...........c#d##........df.......##d#c...............",
".......hfgggggah.........................bg...........................hbh...........................",
".........h##c...........................hgf...........................aa............................",
"........................................#ga..........................cbi............................",
"........................................eg#..........................bj.............................",
"........................................bgh.........................................................",
"......................................#eggee#.......................................................",
"......................................######h......................................................."};
