/* XPM */
static char *step2[]={
"100 30 12 1",
". c None",
"g c #d81a1a",
"b c #dc3434",
"f c #e04d4d",
"e c #e56666",
"a c #e98080",
"j c #ed9898",
"d c #ed9999",
"# c #f2b2b2",
"c c #f6cccc",
"i c #f9e4e4",
"h c #fae5e5",
"....................................................................................................",
"....................................................................................................",
"....................................................................................................",
"..................................................................................#a................",
"..................................................................................bc................",
".................................................................................de.................",
"................cfgga...........................................caeec...........hbh...cfgb#.........",
"...............ea#dggc.........................................ad#fggh..........ad...abegggh........",
"..............ea...ebh.....cc.................................fd..hgga.........hb...#d..#gg#........",
".............agh...c......egc................................dg....ege.........fc........ggh........",
".............gg...........gg.........#.......h...hc..........eg....ega........#e........cga.........",
"............#gg..........#ge.......#fgbh...cfe..aggd.........ceh...egc........bh.......hf#..........",
"............#ggd.........age###...e#.gg#.hfggahbfbgg..............hge........da.......#bec..........",
".............bgga......aebgeeeh..ef..gghce#bgefc.dgg..............ee........hb......dfggggd.........",
".............hbgge.......bg.....cg#.cga....bga...#gb.............ee.........e#.....d#..#ggg.........",
"..............heggbh....hge.....eg.hba.....gb....#ge............ee.........cf...........agg.........",
"................egga....#gd.....ge#f#.....cge....eg#...........e#..........bc...........#gf.........",
".................bge....eg#....#gbeh......dg#....bg...........e#..........da............#gd.........",
".................ega....bg...h.#gd.....h..egh...cga..........e#.....ha...hbh............ff..........",
"........#........egh...hgg..ce.ege....e#..bg....fbh.........ee#h....eh...ad............#bh..........",
".......cg.......hga....#ggefeh.agbh.#b#..hgfh..eeh.........egggggfefd...cb......ad....ceh...........",
".......age......ee.....cggb#...cggggfh...#gggfbd..........ed#debgggf....fc.....#ggbeeed.............",
".......bggec..#ba.......#ah.....#eec.....egaedh...........#......##h...df.......##d#c...............",
".......hfgggggah.........................bg...........................hbh...........................",
".........h##c...........................hgf...........................aa............................",
"........................................#ga..........................cbi............................",
"........................................eg#..........................bj.............................",
"........................................bgh.........................................................",
"......................................#eggee#.......................................................",
"......................................######h......................................................."};
