/* XPM */
static char *volume2[]={
"50 50 5 1",
"# c None",
". c #000000",
"c c #585858",
"a c #a0a0a0",
"b c #c3c3c3",
"..................................................",
".################################################.",
".################################################.",
".################################################.",
"...############.#####.###########################.",
"...############.#####.###########################.",
".a..###########.#####.#.#########################.",
".a...###########.###.##.#########################.",
".a.a..##########.###.##..########################.",
".a.aa..##########.#.###.b.#######################.",
".a.aaa..##########.####..########################.",
".a.aaaa..########################################.",
".a.aaaaa..##...##################################.",
".a.aaaaaa..#...##################################.",
".a.aaaaaaa...c.##################################.",
".a.aaaaaaaa..c.##################################.",
".a.aaaaaaaa..c.##################################.",
".a.aaaaaaaa..c.##################################.",
".a.aaaaaaaa..c.##################################.",
".a.aaaaaaa...c.##################################.",
".a.aaaaaa..#...##################################.",
".a.aaaaa..##...##################################.",
".a.aaaa..########################################.",
".a.aaa..#########################################.",
".a.aa..##########################################.",
".a.a..###########################################.",
".a...############################################.",
".a..#############################################.",
"...##############################################.",
"...##############################################.",
".################################################.",
".################################################.",
".################################################.",
".################################################.",
".################################################.",
"..........................#######################.",
".#######################.#.######################.",
".######################.###.#####################.",
".######################.###.#####################.",
".######################.###.#####################.",
".######################.###.#####################.",
".######################.###.#####################.",
".#######################.#.######################.",
"..........................#######################.",
".################################################.",
".################################################.",
".################################################.",
".################################################.",
".################################################.",
".................................................."};
