/* XPM */
static char *volume3[]={
"50 50 5 1",
"# c None",
". c #000000",
"a c #808080",
"b c #a0a0a0",
"c c #c3c3c3",
"..................................................",
".#################################.##############.",
".#################################.##############.",
".#################################.##############.",
".##.#####.########################.#.#####.######.",
".##.#####.######################...#.#####.######.",
".##.#####.#.###################..a.#.#####.#...##.",
".###.###.##.##################...a.##.###.####.##.",
".###.###.##..################..b.a.##.###.##...##.",
".####.#.###.c.##############..bb.a.###.#.###.####.",
".#####.####..##############..bbb.a.####.####...##.",
".#########################..bbbb.a.##############.",
".##################...###..bbbbb.a.##############.",
".##################...##..bbbbbb.a.##############.",
".##################.a.#..bbbbbbb.a.##############.",
".##################.a...bbbbbbbb.a.##############.",
".##################.a...bbbbbbbb.a.##############.",
".##################.a...bbbbbbbb.a.##############.",
".##################.a...bbbbbbbb.a.##############.",
".##################.a...bbbbbbbb.a.##############.",
".##################.a.#..bbbbbbb.a.##############.",
".##################.a.##..bbbbbb.a.##############.",
".##################...###..bbbbb.a.##############.",
".#########################..bbbb.a.##############.",
".##########################..bbb.a.##############.",
".###########################..bb.a.##############.",
".############################..b.a.##############.",
".#############################...a.##############.",
".##############################..a.##############.",
".###############################...##############.",
".#################################.##############.",
".#################################.##############.",
".#################################.##############.",
".#################################.##############.",
".#################################.##############.",
"..........................########.##############.",
".#######################.c.#######.##############.",
".######################.ccc.######.##############.",
".######################.ccc.######.##############.",
".######################.ccc.######.##############.",
".######################.ccc.######.##############.",
".######################.ccc.######.##############.",
".#######################.c.#######.##############.",
"..........................########.##############.",
".#################################.##############.",
".#################################.##############.",
".#################################.##############.",
".#################################.##############.",
".#################################.##############.",
".................................................."};
