/* XPM */
static char *volume0[]={
"50 50 6 1",
"# c None",
". c #000000",
"d c #585858",
"c c #a0a0a0",
"b c #c3c3c3",
"a c #ff0000",
"..................................................",
".################################################.",
".################################################.",
".##a##########################################a##.",
"...ba##########.#####.#######################a###.",
"...bba#########.#####.######################a####.",
".c..bba########.#####.#.###################a#####.",
".c...bba########.###.##.##################a######.",
".c.c..bba#######.###.##..################a#######.",
".c.cc..bba#######.#.###.b.##############a########.",
".c.ccc..bba#######.####..##############a#########.",
".c.cccc..bba##########################a##########.",
".c.ccccc..bba..######################a###########.",
".c.cccccc..b.a.#####################a############.",
".c.ccccccc...da####################a#############.",
".c.cccccccc..d.a##################a##############.",
".c.cccccccc..d.#a################a###############.",
".c.cccccccc..d.##a##############a################.",
".c.cccccccc..d.###a############a#################.",
".c.ccccccc...d.####a##########a##################.",
".c.cccccc..#...#####a########a###################.",
".c.ccccc..##...######a######a####################.",
".c.cccc..#############a####a#####################.",
".c.ccc..###############a##a######################.",
".c.cc..#################aa#######################.",
".c.c..##################aa#######################.",
".c...##################a##a######################.",
".c..##################a####a#####################.",
"...##################a######a####################.",
"...#################a########a###################.",
".##################a##########a##################.",
".#################a############a#################.",
".################a##############a################.",
".###############a################a###############.",
".##############a##################a##############.",
".#############a####################a#############.",
".############a######################a############.",
".###########a########################a###########.",
".##########a##########################a##########.",
".#########a############################a#########.",
".########a##############################a########.",
".#######a################################a#######.",
".######a##################################a######.",
".#####a####################################a#####.",
".####a######################################a####.",
".###a########################################a###.",
".##a##########################################a##.",
".################################################.",
".################################################.",
".................................................."};
